<svg width="20" height="20" viewBox="0 0 20 20" fill="none" xmlns="http://www.w3.org/2000/svg">
    <path
      d="M15 15.2267C13.5873 16.3484 11.867 16.9698 10.0909 17C4.30579 17 1 10.1133 1 10.1133C2.02801 8.11784 3.27201 6.37441 5 5M11.843 11.9383C11.616 12.192 11.3423 12.3955 11.0381 12.5367C10.734 12.6778 10.4057 12.7537 10.0728 12.7599C9.7399 12.766 9.40923 12.7022 9.1005 12.5723C8.79178 12.4424 8.51134 12.2491 8.27591 12.0039C8.04047 11.7586 7.85487 11.4665 7.73017 11.145C7.60547 10.8234 7.54424 10.479 7.55011 10.1322C7.55598 9.78545 7.62885 9.44348 7.76436 9.1267C7.89987 8.80991 8.03231 8.59036 8.27591 8.35393"
      stroke="#2AA65C"
      stroke-width="2"
      stroke-linecap="round"
      stroke-linejoin="round"
    />
    <path
      opacity="0.5"
      d="M8 3.2145C8.57799 3.07051 9.16975 2.99854 9.76336 3.00002C15.6412 3.00002 19 10.1492 19 10.1492C18.4903 11.1641 17.8824 12.1195 17.1863 13"
      stroke="#2AA65C"
      stroke-width="2"
      stroke-linecap="round"
      stroke-linejoin="round"
    />
    <path d="M1 1L19 19" stroke="#2AA65C" stroke-width="2" stroke-linecap="round" stroke-linejoin="round" />
  </svg>